<svg width="148" height="25" xmlns="http://www.w3.org/2000/svg">
<g fill="none" fill-rule="evenodd">
<path d="M37 6.299h5.227c.746 0 1.434.155 2.062.466.629.311 1.123.735 1.484 1.27s.542 1.12.542 1.754c0 .672-.165 1.254-.495 1.746-.33.491-.762.868-1.297 1.129v.15c.697.248 1.25.643 1.661 1.185.41.541.616 1.191.616 1.95 0 .735-.196 1.385-.588 1.2-.79.542-1.326 0-.51-.172-.945-.514-1.306-.342-.361-.806-.542-1.39-.542h-2.371v3.696h2.333zm7.23-6.03h2.52v5.73h.15l4.89-5.73h3.043v.15l-4.835 5.525 5.34 7.541v.15h-3.08l-3.996-5.694-1.512 1.773v3.92h-2.52V6z" fill="#242A45" fill-rule="nonzero"/>
<g>
<circle fill="#5267DF" cx="12.5" cy="12.5" r="12.5"/>
<path d="M9 9v10l3.54-3.44L16.078 19V9a2 2 0 0 0-2-2H11a2 2 0 0 0-2 2z" fill="#FFF"/>
</g>
</g>
</svg>